<svg width="15" height="15" viewBox="0 0 15 15" fill="none" xmlns="http://www.w3.org/2000/svg">
<g clip-path="url(#clip0_1053_2292)">
<path d="M7.51553 13.6522C10.9597 13.6522 13.7518 10.8601 13.7518 7.41592C13.7518 3.97175 10.9597 1.17969 7.51553 1.17969C4.07135 1.17969 1.2793 3.97175 1.2793 7.41592C1.2793 10.8601 4.07135 13.6522 7.51553 13.6522Z" fill="#D68F30"/>
<path d="M1.70312 9.03584V9.67294C1.76836 9.84146 1.8412 10.0078 1.92057 10.1687V9.03584H1.70312ZM2.41416 10.235V11.0004C2.50114 11.1233 2.59138 11.244 2.68596 11.3603V10.235H2.41416ZM3.35568 11.2353V12.0605C3.46114 12.155 3.56986 12.2453 3.68185 12.3323V11.2353H3.35568ZM4.51465 11.9952V12.8824C4.6212 12.9411 4.72992 12.9965 4.84081 13.0498V11.9952H4.51465ZM5.82909 12.479V13.4184C5.93672 13.4488 6.04544 13.476 6.15525 13.501V12.479H5.82909ZM7.36749 12.6465V13.6478C7.41641 13.6489 7.46534 13.651 7.51535 13.651C7.57515 13.651 7.63494 13.6478 7.69365 13.6467V12.6465H7.36749ZM8.90589 12.4714V13.4934C9.0157 13.4684 9.12442 13.4401 9.23205 13.4097V12.4714H8.90589ZM10.2171 11.9811V13.0368C10.328 12.9835 10.4367 12.9259 10.5432 12.8661V11.9811H10.2171ZM11.3728 11.2146V12.3127C11.4847 12.2252 11.5934 12.1338 11.6989 12.0387V11.2146H11.3728ZM12.635 10.2111H12.3632V11.3364C12.4578 11.219 12.5491 11.0983 12.635 10.9743V10.2111ZM13.3417 9.00757H13.1243V10.1426C13.2036 9.97845 13.2765 9.80993 13.3417 9.63924V9.00757Z" fill="#BC6F00"/>
<path d="M7.51553 13.0911C10.9597 13.0911 13.7518 10.2991 13.7518 6.85489C13.7518 3.41071 10.9597 0.618652 7.51553 0.618652C4.07135 0.618652 1.2793 3.41071 1.2793 6.85489C1.2793 10.2991 4.07135 13.0911 7.51553 13.0911Z" fill="#FFF176"/>
<path d="M7.51466 12.5359C10.652 12.5359 13.1953 9.99258 13.1953 6.85523C13.1953 3.71788 10.652 1.17456 7.51466 1.17456C4.37731 1.17456 1.83398 3.71788 1.83398 6.85523C1.83398 9.99258 4.37731 12.5359 7.51466 12.5359Z" fill="#F2BC1A"/>
<path d="M1.82363 7.07256C1.7834 6.32456 1.91278 5.56569 2.17371 4.85465C2.44551 4.14579 2.86191 3.4902 3.38703 2.93355C4.44163 1.81807 5.97242 1.17118 7.51517 1.16357C9.05792 1.17227 10.5898 1.81807 11.6422 2.93464C12.1684 3.4902 12.5837 4.14688 12.8555 4.85465C13.1176 5.56677 13.2469 6.32456 13.2056 7.07256H13.1839C13.1816 6.32638 13.0339 5.58779 12.749 4.89814C12.4636 4.20926 12.0466 3.58258 11.5215 3.05314C10.9961 2.52427 10.3718 2.10388 9.68415 1.8159C8.99668 1.52883 8.25908 1.38101 7.51408 1.38101C6.76908 1.38101 6.03148 1.52883 5.34401 1.8159C4.65636 2.10388 4.03206 2.52427 3.50663 3.05314C2.98131 3.58241 2.56436 4.20912 2.27917 4.89814C1.99426 5.58779 1.84654 6.32638 1.84428 7.07256H1.82363Z" fill="#E08F00"/>
<path d="M7.51553 0.619995C4.07125 0.619995 1.2793 3.41195 1.2793 6.85623C1.2793 10.3005 4.07125 13.0925 7.51553 13.0925C10.9598 13.0925 13.7518 10.3005 13.7518 6.85623C13.7518 3.41195 10.9598 0.619995 7.51553 0.619995ZM7.51553 12.5369C4.37784 12.5369 1.83486 9.99392 1.83486 6.85623C1.83486 3.71746 4.37784 1.17447 7.51553 1.17447C10.6532 1.17447 13.1962 3.71746 13.1962 6.85514C13.1962 9.99283 10.6532 12.5369 7.51553 12.5369Z" fill="#FFF176"/>
<path d="M4.68914 2.49878L4.82722 2.92605L5.27732 2.75427V2.92605L4.91311 3.19024L5.05227 3.44465V3.61752L4.68914 3.35333L4.32493 3.61752V3.44465L4.46409 3.19024L4.10096 2.92605V2.75427L4.54998 2.92605L4.68914 2.49878ZM2.95178 4.95152L3.09094 5.3788L3.53996 5.20702V5.3788L3.17683 5.64299L3.31599 5.89848V6.07026L2.95178 5.80607L2.58865 6.07026V5.89848L2.72781 5.64299L2.3636 5.3788V5.20702L2.8137 5.3788L2.95178 4.95152ZM2.90068 7.97506L3.03984 8.40233L3.48886 8.23055V8.40233L3.12573 8.66652L3.2649 8.92201V9.09379L2.90068 8.8296L2.53755 9.09379V8.92201L2.67672 8.66652L2.3125 8.40233V8.23055L2.76261 8.40233L2.90068 7.97506ZM4.75546 10.3756L4.89462 10.8029L5.34364 10.6311V10.8029L4.98051 11.0671L5.11968 11.3215V11.4944L4.75546 11.2302L4.39233 11.4944V11.3215L4.5315 11.0671L4.16728 10.8029V10.6311L4.61739 10.8029L4.75546 10.3756ZM10.3448 2.49878L10.2067 2.92605L9.75663 2.75427V2.92605L10.1208 3.19024L9.98168 3.44465V3.61752L10.3448 3.35333L10.709 3.61752V3.44465L10.5699 3.19024L10.933 2.92605V2.75427L10.484 2.92605L10.3448 2.49878ZM12.0822 4.95152L11.943 5.3788L11.494 5.20702V5.3788L11.8571 5.64299L11.718 5.89848V6.07026L12.0822 5.80607L12.4453 6.07026V5.89848L12.3061 5.64299L12.6703 5.3788V5.20702L12.2202 5.3788L12.0822 4.95152ZM12.1333 7.97506L11.9941 8.40233L11.5451 8.23055V8.40233L11.9082 8.66652L11.7691 8.92201V9.09379L12.1333 8.8296L12.4964 9.09379V8.92201L12.3572 8.66652L12.7214 8.40233V8.23055L12.2713 8.40233L12.1333 7.97506ZM10.2785 10.3756L10.1393 10.8029L9.69031 10.6311V10.8029L10.0534 11.0671L9.91427 11.3215V11.4944L10.2785 11.2302L10.6416 11.4944V11.3215L10.5025 11.0671L10.8667 10.8029V10.6311L10.4166 10.8029L10.2785 10.3756Z" fill="#D38200"/>
<path d="M10.2757 10.2029L10.4138 10.6302H10.8639L10.4996 10.8943L10.6388 11.3216L10.2757 11.0574L9.91147 11.3216L10.0506 10.8943L9.6875 10.6302H10.1365L10.2757 10.2029ZM12.1305 7.80341L12.2685 8.23069H12.7186L12.3544 8.49488L12.4936 8.92215L12.1305 8.65796L11.7662 8.92215L11.9054 8.49488L11.5423 8.23069H11.9913L12.1305 7.80341ZM12.0794 4.77988L12.2174 5.20716H12.6675L12.3033 5.47135L12.4425 5.89862L12.0794 5.63443L11.7151 5.89862L11.8543 5.47135L11.4912 5.20716H11.9402L12.0794 4.77988ZM10.342 2.32605L10.4812 2.75332H10.9302L10.5671 3.01752L10.7062 3.44479L10.342 3.1806L9.97887 3.44479L10.118 3.01752L9.75382 2.75332H10.2039L10.342 2.32605Z" fill="#FFF176"/>
<path d="M7.52177 11.3213L7.66094 11.7486L8.10995 11.5768V11.7486L7.74683 12.0128L7.88599 12.2682V12.44L7.52177 12.1758L7.15865 12.44V12.2682L7.29781 12.0128L6.93359 11.7486V11.5768L7.3837 11.7486L7.52177 11.3213Z" fill="#D38200"/>
<path d="M7.52177 11.0928L7.66094 11.52H8.10995L7.74683 11.7842L7.88599 12.2115L7.52177 11.9473L7.15865 12.2115L7.29781 11.7842L6.93359 11.52H7.3837L7.52177 11.0928Z" fill="#FFF176"/>
<path d="M7.52177 1.57886L7.66094 2.00613L8.10995 1.83435V2.00613L7.74683 2.27032L7.88599 2.52582V2.6976L7.52177 2.4334L7.15865 2.6976V2.52582L7.29781 2.27032L6.93359 2.00613V1.83435L7.3837 2.00613L7.52177 1.57886Z" fill="#D38200"/>
<path d="M7.52241 1.40698L7.66157 1.83426H8.11059L7.74746 2.09845L7.88663 2.52572L7.52241 2.26153L7.15928 2.52572L7.29844 2.09845L6.93423 1.83426H7.38433L7.52241 1.40698ZM4.75546 10.2025L4.61739 10.6298H4.16728L4.5315 10.894L4.39233 11.3212L4.75546 11.0571L5.11968 11.3212L4.98051 10.894L5.34364 10.6298H4.89462L4.75546 10.2025ZM2.90068 7.80304L2.76261 8.23031H2.3125L2.67672 8.4945L2.53755 8.92178L2.90068 8.65758L3.2649 8.92178L3.12573 8.4945L3.48886 8.23031H3.03984L2.90068 7.80304ZM2.95178 4.77951L2.8137 5.20678H2.3636L2.72781 5.47097L2.58865 5.89825L2.95178 5.63405L3.31599 5.89825L3.17683 5.47097L3.53996 5.20678H3.09094L2.95178 4.77951ZM4.68914 2.32567L4.54998 2.75295H4.10096L4.46409 3.01714L4.32493 3.44441L4.68914 3.18022L5.05227 3.44441L4.91311 3.01714L5.27732 2.75295H4.82722L4.68914 2.32567Z" fill="#FFF176"/>
<path d="M10.9111 5.41779C10.9111 5.37974 4.12909 5.41779 4.12909 5.41779L4.06821 5.60044V5.91247C4.06821 5.96901 4.11387 6.01467 4.1704 6.01467H10.8633C10.9198 6.01467 10.9655 5.96901 10.9655 5.91247V5.60914L10.9111 5.41779ZM10.9209 9.47308H4.15736L3.70508 9.70031L3.71051 9.99277C3.7116 10.0243 3.73769 10.0504 3.77031 10.0504H11.2644C11.296 10.0504 11.3232 10.0254 11.3242 9.99277L11.3297 9.70575L10.9209 9.47308Z" fill="#D38200"/>
<path d="M5.24613 8.58395H4.85691C4.79277 8.58395 4.74058 8.38173 4.74058 8.31758L5.36138 8.29801C5.36138 8.36216 5.30919 8.58395 5.24613 8.58395ZM5.37877 6.48454H4.72319C4.67426 6.48454 4.63186 6.45193 4.61773 6.40518L4.56663 5.97791H5.52663L5.48315 6.40518C5.4701 6.45193 5.4277 6.48454 5.37877 6.48454ZM4.72319 8.71333H5.37877C5.4277 8.71333 5.52446 8.74377 5.53751 8.79052C5.53751 8.79052 5.53424 8.99383 5.53424 9.07428C5.53424 9.15473 5.50163 9.21344 5.42878 9.21344H4.67317C4.60033 9.21344 4.56771 9.14821 4.56771 9.07428C4.56771 9.00035 4.56445 8.79269 4.56445 8.79269C4.57859 8.74594 4.67426 8.71333 4.72319 8.71333ZM10.3017 8.58395H9.91244C9.84829 8.58395 9.79611 8.38173 9.79611 8.31758L10.4169 8.29801C10.4169 8.36216 10.3658 8.58395 10.3017 8.58395ZM10.4343 6.48454H9.77871C9.72979 6.48454 9.68739 6.45193 9.67325 6.40518L9.62215 5.97791H10.5822L10.5387 6.40518C10.5256 6.45193 10.4832 6.48454 10.4343 6.48454ZM9.77871 8.71333H10.4343C10.4832 8.71333 10.58 8.74377 10.593 8.79052C10.593 8.79052 10.5898 8.99383 10.5898 9.07428C10.5898 9.15473 10.5572 9.21344 10.4843 9.21344H9.7287C9.65586 9.21344 9.62324 9.14821 9.62324 9.07428C9.62324 9.00035 9.61998 8.79269 9.61998 8.79269C9.63411 8.74594 9.72979 8.71333 9.77871 8.71333ZM8.61648 8.58395H8.22726C8.16312 8.58395 8.11093 8.38173 8.11093 8.31758L8.73173 8.29801C8.73173 8.36216 8.68063 8.58395 8.61648 8.58395ZM8.74912 6.48454H8.09354C8.04461 6.48454 8.00221 6.45193 7.98808 6.40518L7.93698 5.97791H8.89698L8.8535 6.40518C8.84045 6.45193 8.79805 6.48454 8.74912 6.48454ZM8.09354 8.71333H8.74912C8.79805 8.71333 8.89481 8.74377 8.90786 8.79052C8.90786 8.79052 8.90459 8.99383 8.90459 9.07428C8.90459 9.15473 8.87198 9.21344 8.79913 9.21344H8.04352C7.97068 9.21344 7.93806 9.14821 7.93806 9.07428C7.93806 9.00035 7.9348 8.79269 7.9348 8.79269C7.94894 8.74594 8.04461 8.71333 8.09354 8.71333ZM6.93131 8.58395H6.54209C6.47794 8.58395 6.42576 8.38173 6.42576 8.31758L7.04655 8.29801C7.04655 8.36216 6.99545 8.58395 6.93131 8.58395ZM7.06395 6.48454H6.40836C6.35944 6.48454 6.31703 6.45193 6.3029 6.40518L6.2518 5.97791H7.21181L7.16832 6.40518C7.15527 6.45193 7.11287 6.48454 7.06395 6.48454ZM6.40836 8.71333H7.06395C7.11287 8.71333 7.20963 8.74377 7.22268 8.79052C7.22268 8.79052 7.21942 8.99383 7.21942 9.07428C7.21942 9.15473 7.1868 9.21344 7.11396 9.21344H6.35835C6.28551 9.21344 6.25289 9.14821 6.25289 9.07428C6.25289 9.00035 6.24963 8.79269 6.24963 8.79269C6.26376 8.74594 6.35944 8.71333 6.40836 8.71333Z" fill="#D38200"/>
<path d="M10.9602 5.12653C10.9602 5.08847 10.9406 5.0526 10.9113 5.0352L7.52134 3.11084L4.12707 5.03303C4.09445 5.0526 4.0738 5.08847 4.0738 5.12653L4.06836 5.60164C4.06836 5.66143 4.11728 5.71036 4.17708 5.71036H10.8558C10.9156 5.71036 10.9645 5.66143 10.9645 5.60164L10.9602 5.12653Z" fill="#FFF176"/>
<path d="M10.1076 4.997L7.51574 3.526L4.92383 4.997H10.1076Z" fill="#F2BC1A"/>
<path d="M9.15496 4.81774L7.51653 3.88708L5.87811 4.81774H9.15496ZM10.7118 9.09482H4.32122C4.25817 9.09482 4.19837 9.122 4.15597 9.16875L3.71674 9.65908C3.68629 9.69279 3.71021 9.74606 3.75588 9.74606H11.2772C11.3218 9.74606 11.3457 9.69279 11.3163 9.65908L10.876 9.16875C10.8347 9.122 10.7738 9.09482 10.7118 9.09482ZM10.3031 8.38705H9.91383C9.84969 8.38705 9.7975 8.33486 9.7975 8.27072V6.53335C9.7975 6.46921 9.84969 6.41702 9.91383 6.41702H10.3031C10.3672 6.41702 10.4194 6.46921 10.4194 6.53335V8.2718C10.4194 8.33595 10.3672 8.38705 10.3031 8.38705ZM10.4368 6.28764H9.78119C9.73227 6.28764 9.68987 6.25503 9.67573 6.20828L9.62572 6.03541C9.60506 5.96583 9.65834 5.89625 9.73118 5.89625H10.4868C10.5596 5.89625 10.6118 5.96583 10.5923 6.03541L10.5422 6.20828C10.5281 6.25503 10.4846 6.28764 10.4368 6.28764ZM9.78011 8.51751H10.4357C10.4846 8.51751 10.527 8.55013 10.5412 8.59688L10.5912 8.76974C10.6118 8.83933 10.5585 8.90891 10.4857 8.90891H9.73009C9.65725 8.90891 9.60506 8.83933 9.62463 8.76974L9.67465 8.59688C9.68878 8.54904 9.73227 8.51751 9.78011 8.51751ZM5.24753 8.38705H4.85831C4.79416 8.38705 4.74197 8.33486 4.74197 8.27072V6.53335C4.74197 6.46921 4.79416 6.41702 4.85831 6.41702H5.24753C5.31167 6.41702 5.36386 6.46921 5.36386 6.53335V8.2718C5.36277 8.33595 5.31059 8.38705 5.24753 8.38705ZM5.38017 6.28764H4.72458C4.67565 6.28764 4.63325 6.25503 4.61912 6.20828L4.56911 6.03541C4.54845 5.96583 4.60172 5.89625 4.67457 5.89625H5.43018C5.50302 5.89625 5.55521 5.96583 5.53564 6.03541L5.48563 6.20828C5.47149 6.25503 5.42909 6.28764 5.38017 6.28764ZM4.72458 8.51751H5.38017C5.42909 8.51751 5.47149 8.55013 5.48563 8.59688L5.53564 8.76974C5.55629 8.83933 5.50302 8.90891 5.43018 8.90891H4.67457C4.60172 8.90891 4.54954 8.83933 4.56911 8.76974L4.61912 8.59688C4.63325 8.54904 4.67565 8.51751 4.72458 8.51751ZM6.9327 8.38705H6.54348C6.47934 8.38705 6.42715 8.33486 6.42715 8.27072V6.53335C6.42715 6.46921 6.47934 6.41702 6.54348 6.41702H6.9327C6.99685 6.41702 7.04903 6.46921 7.04903 6.53335V8.2718C7.04875 8.30247 7.03636 8.33178 7.01458 8.35336C6.99279 8.37494 6.96337 8.38705 6.9327 8.38705ZM7.06534 6.28764H6.40975C6.36083 6.28764 6.31843 6.25503 6.30429 6.20828L6.25428 6.03541C6.23363 5.96583 6.2869 5.89625 6.35974 5.89625H7.11535C7.1882 5.89625 7.24038 5.96583 7.22081 6.03541L7.1708 6.20828C7.15667 6.25503 7.11427 6.28764 7.06534 6.28764ZM6.40975 8.51751H7.06534C7.11427 8.51751 7.15667 8.55013 7.1708 8.59688L7.22081 8.76974C7.24147 8.83933 7.1882 8.90891 7.11535 8.90891H6.35974C6.2869 8.90891 6.23471 8.83933 6.25428 8.76974L6.30429 8.59688C6.31843 8.54904 6.36083 8.51751 6.40975 8.51751ZM8.61788 8.38705H8.22866C8.16451 8.38705 8.11233 8.33486 8.11233 8.27072V6.53335C8.11233 6.46921 8.16451 6.41702 8.22866 6.41702H8.61788C8.68202 6.41702 8.73421 6.46921 8.73421 6.53335V8.2718C8.73392 8.30247 8.72154 8.33178 8.69975 8.35336C8.67797 8.37494 8.64854 8.38705 8.61788 8.38705ZM8.75052 6.28764H8.09493C8.04601 6.28764 8.0036 6.25503 7.98947 6.20828L7.93946 6.03541C7.9188 5.96583 7.97207 5.89625 8.04492 5.89625H8.80053C8.87337 5.89625 8.92556 5.96583 8.90599 6.03541L8.85598 6.20828C8.84184 6.25503 8.79944 6.28764 8.75052 6.28764ZM8.09493 8.51751H8.75052C8.79944 8.51751 8.84184 8.55013 8.85598 8.59688L8.90599 8.76974C8.92665 8.83933 8.87337 8.90891 8.80053 8.90891H8.04492C7.97207 8.90891 7.91989 8.83933 7.93946 8.76974L7.98947 8.59688C8.0036 8.54904 8.04709 8.51751 8.09493 8.51751Z" fill="#FFF176"/>
</g>
<defs>
<clipPath id="clip0_1053_2292">
<rect width="13.9163" height="13.9163" fill="white" transform="translate(0.558594 0.177246)"/>
</clipPath>
</defs>
</svg>
