<svg width="38" height="38" viewBox="0 0 38 38" fill="none" xmlns="http://www.w3.org/2000/svg">
<path fill-rule="evenodd" clip-rule="evenodd" d="M6.53125 0.296875C6.24204 0.296885 5.95854 0.377362 5.71246 0.529303C5.46638 0.681245 5.26743 0.898657 5.13787 1.15722L0.462086 10.5088C0.35346 10.7255 0.296891 10.9646 0.296875 11.207V17.4414C0.296875 17.8548 0.461084 18.2512 0.753377 18.5435C1.04567 18.8358 1.4421 19 1.85547 19H3.41406V36.1445C3.41406 36.5579 3.57827 36.9543 3.87056 37.2466C4.16286 37.5389 4.55929 37.7031 4.97266 37.7031H33.0273C33.4407 37.7031 33.8371 37.5389 34.1294 37.2466C34.4217 36.9543 34.5859 36.5579 34.5859 36.1445V19H36.1445C36.5579 19 36.9543 18.8358 37.2466 18.5435C37.5389 18.2512 37.7031 17.8548 37.7031 17.4414V11.207C37.7031 10.9646 37.6465 10.7255 37.5379 10.5088L32.8621 1.15722C32.7326 0.898657 32.5336 0.681245 32.2875 0.529303C32.0415 0.377362 31.758 0.296885 31.4688 0.296875H6.53125ZM34.5859 11.5749V15.8828H28.3516V12.7656H25.2344V15.8828H20.5586V12.7656H17.4414V15.8828H12.7656V12.7656H9.64844V15.8828H3.41406V11.5749L7.49446 3.41406H30.5055L34.5859 11.5749ZM14.3242 25.2344H17.4414V22.1172H14.3242V25.2344ZM20.5586 25.2344H23.6758V22.1172H20.5586V25.2344ZM17.4414 29.9102H14.3242V26.793H17.4414V29.9102ZM20.5586 29.9102H23.6758V26.793H20.5586V29.9102Z" fill="white"/>
</svg>
